<?xml version="1.0" encoding="UTF-8"?>
<svg id="Layer_1" xmlns="http://www.w3.org/2000/svg" viewBox="0 0 1266.99 741.07">
  <defs>
    <style>
      .cls-1 {
        fill: #29abe2;
      }

      .cls-2 {
        fill: #0071bc;
      }
    </style>
  </defs>
  <path class="cls-2" d="M22.96,739.15C2.82,632.16-.75,529.6.12,384.07c.43-71.51,7.55-140.96,12.88-203.38C19.9,99.91,85.7,42.64,155.56,31.83,308.35,8.17,461.61-.35,640.54.01c134.21.27,284.99,2.89,386.53,17.46,143.16,20.53,192.2,43.55,225.85,205.12,15.62,75.01,15.17,136.01,12.88,182.43-1.55,31.38-13.15,266.53-38.65,336.05"/>
  <path class="cls-1" d="M777.68,268.83c-186.64,110.02-279.95,165.03-406.97,201.08-139.35,39.56-257.32,73.05-309.92,11.63-23.75-27.74-27.91-67.52-33.64-122.43-4.23-40.48-10.86-104,19.41-173.73,8.21-18.91,37.25-85.82,101.71-117.66,1.64-.81,4.64-2.26,8.93-4.09C244.27,26.5,405.85,26.72,431.53,26.71c112.37-.03,166.59-5.04,279.51,1.37,17.89,1.02,92.02-1.64,149.46,28.04,31.85,16.46,47.2,41.92,52.41,71.82,9.56,54.91-128.81,137.11-135.23,140.9Z"/>
</svg>