<?xml version="1.0" encoding="UTF-8"?>
<svg id="Layer_1" xmlns="http://www.w3.org/2000/svg" viewBox="0 0 1369.26 771.35">
  <defs>
    <style>
      .cls-1 {
        fill: #29abe2;
      }

      .cls-2 {
        fill: #0071bc;
      }

      .cls-3 {
        fill: #2e3192;
      }

      .cls-4 {
        fill: #333;
      }

      .cls-5 {
        fill: none;
        stroke: #000;
        stroke-miterlimit: 10;
        stroke-width: 5px;
      }
    </style>
  </defs>
  <g>
    <rect class="cls-4" x="2.2" y="2.22" width="1364.93" height="767"/>
    <path d="M1366.63,2.72v766H2.7V2.72h1363.93M1367.63,1.72H1.7v768h1365.93V1.72h0Z"/>
  </g>
  <line class="cls-5" x1="105.12" y1="90.97" x2="2.05" y2="2.08"/>
  <line class="cls-5" x1="1366.84" y1="769.46" x2="1263.77" y2="680.57"/>
  <line class="cls-5" x1="1367.63" y1="1.9" x2="1264.34" y2="90.54"/>
  <line class="cls-5" x1="104.91" y1="680.75" x2="1.63" y2="769.39"/>
  <g>
    <path class="cls-3" d="M684.45,710.88c-193.17,0-388.6-9.71-580.89-28.86-16.96-101.77-25.2-205.64-24.49-308.75.65-94.8,8.89-190.3,24.49-283.86,192.36-17.22,387.79-25.95,580.9-25.95,3.8,0,7.56,0,11.37,0,189.33.33,380.94,9.06,569.54,25.94,20.27,96.2,30.66,194.81,30.88,293.1.22,100.44-10.17,201.2-30.88,299.5-182.17,18.14-367.32,27.83-550.34,28.78-10.14.05-20.43.08-30.57.08Z"/>
    <path d="M684.46,63.22v.5c3.8,0,7.57,0,11.37,0,189.25.33,380.81,9.05,569.33,25.92,20.24,96.12,30.62,194.66,30.83,292.87.22,100.36-10.15,201.05-30.84,299.27-182.1,18.13-367.19,27.81-550.14,28.76-10.15.05-20.43.08-30.56.08-193.1,0-388.48-9.7-580.69-28.84-16.94-101.69-25.17-205.49-24.45-308.51.65-94.72,8.88-190.14,24.45-283.63,192.27-17.2,387.64-25.93,580.68-25.93v-.5M684.46,63.22c-208.58,0-403,10.02-581.11,25.97-13.5,80.93-23.78,176.6-24.52,284.09-.81,117.99,10.06,222.24,24.52,308.98,176.5,17.58,371.05,28.88,581.12,28.88,10.15,0,20.34-.03,30.56-.08,198.11-1.03,382.33-12.04,550.55-28.8,16.87-80.01,31.18-181.7,30.92-299.73-.26-115.18-14.33-214.63-30.92-293.33-174.98-15.67-365.55-25.6-569.74-25.96-3.81,0-7.58,0-11.38,0h0Z"/>
  </g>
  <path class="cls-2" d="M1267,648.12c-3.56,18.59-1.07,34.45-19.9,36.27-154.19,14.89-319.79,26.05-505.41,27.02-208.8,1.09-417.76-9.36-592.84-25.6-19.17-1.78-34.37-17.29-37.67-36.27-13.18-75.78-15.64-152.57-14.93-256,.4-58.26,7.08-114.84,12.08-165.69,6.47-65.82,68.19-112.47,133.71-121.28,143.31-19.27,287.05-26.21,454.87-25.92,125.88.22,267.3,2.36,362.53,14.22,134.28,16.73,180.26,35.48,211.83,167.11,4.82,20.11,12.04,127.03,12.08,148.62.23,102.07-3.91,172.61-16.35,237.51Z"/>
  <path class="cls-1" d="M825.53,332.88c-175.05,103.23-262.57,154.84-381.71,188.67-130.7,37.12-241.35,68.54-290.68,10.91-22.28-26.03-26.18-63.35-31.56-114.87-3.97-37.98-10.19-97.58,18.21-163,7.7-17.74,34.93-80.53,95.4-110.4,1.54-.76,4.35-2.12,8.37-3.83,81.66-34.85,233.22-34.65,257.3-34.65,105.39-.03,156.25-4.73,262.16,1.28,16.78.95,86.31-1.54,140.18,26.31,29.87,15.44,44.27,39.33,49.15,67.38,8.96,51.52-120.81,128.65-126.83,132.2Z"/>
</svg>